<?xml version="1.0" encoding="utf-8" ?><svg xmlns="http://www.w3.org/2000/svg" xmlns:xlink="http://www.w3.org/1999/xlink" width="785" height="378" viewBox="0 0 785 378"><clipPath id="cl_3"><rect width="785" height="378"/></clipPath><g clip-path="url(#cl_3)"><path fill="#EB0000" transform="translate(-15 -198)" d="M271.384 401.269C287.587 400.428 304.884 401.564 321.21 400.971C324.752 400.842 323.664 407.956 323.834 411.308C324.294 420.386 324.091 432.097 329.853 439.761C353.677 459.612 370.205 429.313 358.966 408.416C342.823 384.568 310.17 374.065 291.322 352.855C263.766 321.543 267.13 258.501 307.371 238.938C335.361 224.723 378.872 228.252 400.236 252.722C412.583 266.864 417.159 291.074 415.8 309.514C414.6 309.844 412.256 310.378 410.648 310.39C395.864 310.504 380.426 310.993 365.725 310.191C365.043 310.065 364.488 308.309 364.397 307.749C363.36 301.377 363.356 294.467 361.418 288.275C359.777 283.03 355.607 276.848 350.362 274.898C346.334 273.42 341.887 273.586 337.98 275.36C328.785 279.584 324.055 295.632 328.979 304.22C340.788 324.841 365.635 334.248 383.748 348.172C400.441 361.004 412.164 372.075 415.966 393.384C420.035 416.186 418.436 433.244 410.035 454.724C408.92 457.263 407.483 460.801 405.711 462.919C386.338 498.054 316.322 500.503 289.142 473.567C287.066 471.51 281.884 464.901 280.345 462.437C271.92 448.957 268.614 416.033 271.384 401.269Z"/><path fill="#C70202" transform="translate(-15 -198)" d="M405.711 462.919C404.935 460.174 406.557 457.17 408.366 455.076C408.902 454.456 409.169 454.708 410.035 454.724C408.92 457.263 407.483 460.801 405.711 462.919Z"/><path fill="#EB0000" transform="translate(-15 -198)" d="M555.667 467.969C548.815 481.278 527.496 489.113 513.161 490.444C489.822 492.61 457.973 488.564 446.656 464.699C435.264 440.672 433.275 412.457 433.799 386.274C434.125 369.955 436.667 351.282 440.978 335.482C451.646 295.442 492.604 286.837 528.042 297.153C574.305 310.382 570.319 373.758 570.163 411.742C570.147 415.437 567.589 436.336 566.759 438.999C565.567 446.264 560.124 462.045 555.667 467.969ZM491.337 338.137C487.137 349.168 487.951 357.813 487.396 368.905C486.63 376.475 486.064 384.195 486.399 391.811C486.643 397.383 487.369 402.864 487.565 408.467C488.023 421.564 483.965 452.813 504.39 451.886C508.019 451.033 509.924 450.275 511.971 446.939C520.955 432.302 518.14 372.619 516.544 353.814C516.246 350.298 516.586 346.71 515.618 343.279C514.569 339.561 511.518 336.697 508.18 334.945C505.476 333.525 503.13 333.022 500.109 333.243C496.344 334.54 494.392 335.521 491.337 338.137Z"/><path fill="#DE0002" transform="translate(-15 -198)" d="M555.667 467.969C554.675 464.537 556.537 462.737 558.268 459.736L559.339 459.865C559.654 457.468 561.379 455.631 561.896 453.354C562.477 450.795 564.863 435.179 566.224 434.318C565.962 435.853 565.169 438.625 565.739 439.754L566.759 438.999C565.567 446.264 560.124 462.045 555.667 467.969Z"/><path fill="#190E0C" transform="translate(-15 -198)" d="M203.385 294.665C208.545 293.23 216.3 295.508 221.341 297.051C240.293 302.854 246.779 323.131 247.997 341.012C248.862 353.708 248.833 366.764 248.832 379.533L248.818 434.509C248.821 441.213 249.576 481.121 248.167 485.446C243.582 486.865 203.887 485.727 197.16 485.521L197.218 406.131C197.214 394.453 198.049 350.93 194.982 342.474C187.574 335.345 181.886 335.029 173.934 342.064C166.904 348.283 167.542 358.586 167.184 367.222C167.403 393.659 167.448 420.096 167.318 446.534L167.244 470.473C167.215 475.045 167.32 481.624 166.629 485.997C149.604 485.847 132.018 485.713 115.01 485.884C115.274 480.345 115.261 475.174 114.803 469.664C114.166 462.004 114.323 454.201 114.314 446.508L114.318 414.173C114.351 410.507 114.672 406.857 114.691 403.275C114.708 399.987 114.318 396.374 114.292 392.969C113.915 367.143 114.085 341.312 114.803 315.493C114.985 310.057 113.474 304.403 115.465 299.133C118.573 297.03 156.953 298.925 163.609 299.337C164.454 305.562 162.961 313.357 162.401 319.897C165.518 317.868 168.174 314.557 170.711 311.816C183.056 298.479 186.155 298.037 203.385 294.665Z"/><path fill="#EB0000" transform="translate(-15 -198)" d="M634.601 238.481C643.481 236.746 657.066 235.783 666.046 236.664C668.815 236.442 672.054 236.652 674.869 236.76C675.436 241.586 676.557 271.172 674.508 273.588C673.399 274.896 664.495 275.106 662.255 275.661C660.189 276.173 658.565 277.103 656.78 278.211C652.827 285.808 652.92 289.824 652.768 298.496C656.846 298.233 671.322 297.554 674.603 298.818C675.798 300.875 675.159 330.309 675.547 335.054C675.486 335.841 675.587 336.905 675.099 337.299C672.676 339.255 666.085 338.709 662.912 338.898C660.179 339.007 656.536 339.252 653.882 339.146C653.379 352.766 653.678 366.804 653.7 380.468L653.843 452.205C653.814 458.746 653.84 465.287 653.919 471.828C653.959 474.198 654.643 483.882 653.486 485.449L652.862 485.553C649.208 486.275 605.801 486.362 602.579 485.531C601.426 483.983 602.026 478.421 602.063 476.158L602.399 458.056L602.56 376.62L602.529 349.794C602.492 346.324 602.06 341.737 602.208 338.567C600.152 338.434 598.032 338.415 595.968 338.366C593.925 339.195 584.731 339.208 582.49 338.15C580.751 335.55 581.853 303.911 581.893 298.499C588.274 298.01 596.031 299.985 602.081 298.615L602.228 297.079C603.279 287.107 601.432 278.589 604.05 268.334C606.788 257.607 609.423 253.78 617.109 246.216C620.273 241.927 629.611 239.291 634.601 238.481Z"/><path fill="#C70202" transform="translate(-15 -198)" d="M595.968 338.366C597.817 336.706 600.465 337.25 603.039 337.391L603.39 337.41C605.187 350.564 604.537 358.309 604.479 371.482C604.554 384.945 604.509 398.408 604.344 411.87L604.235 436.255C604.219 439.853 604.378 446.624 603.916 449.975C603.028 448.943 603.841 441.193 603.33 440.322C603.336 443.867 603.522 454.963 602.399 458.056L602.56 376.62L602.529 349.794C602.492 346.324 602.06 341.737 602.208 338.567C600.152 338.434 598.032 338.415 595.968 338.366Z"/><path fill="#DE0002" transform="translate(-15 -198)" d="M617.109 246.216C617.596 249.227 616.69 248.691 614.872 250.633C606.475 259.604 604.84 270.428 604.909 282.244C604.938 287.374 605.18 294.437 602.081 298.615L602.228 297.079C603.279 287.107 601.432 278.589 604.05 268.334C606.788 257.607 609.423 253.78 617.109 246.216Z"/><path fill="#310507" transform="translate(-15 -198)" d="M602.579 485.531C605.63 484.699 649.587 484.619 652.862 485.553C649.208 486.275 605.801 486.362 602.579 485.531Z"/><path fill="#DE0002" transform="translate(-15 -198)" d="M634.601 238.481C643.481 236.746 657.066 235.783 666.046 236.664C661.511 237.064 656.763 237.308 652.213 237.725C647.627 238.145 638.552 240.259 634.601 238.481Z"/><path fill="#C70202" transform="translate(-15 -198)" d="M662.912 338.898L663.174 338.58L662.578 338.058L662.79 337.595C667.32 335.653 670.015 338.36 674.807 336.699L675.547 335.054C675.486 335.841 675.587 336.905 675.099 337.299C672.676 339.255 666.085 338.709 662.912 338.898Z"/><path fill="#EB0000" transform="translate(-15 -198)" d="M705.807 247.824C711.988 246.896 753.071 246.081 757.125 248.025C758.658 251.836 757.722 258.348 758.2 262.446C759.628 274.697 758.421 286.749 759.02 299.028C765.912 299.491 771.807 297.708 778.661 298.318C778.915 298.96 779.766 301.185 779.784 301.8C779.972 308.35 780.905 330.848 779.227 335.785C777.056 338.742 762.821 337.574 758.256 338.248C757.086 351.819 758.116 367.167 757.829 380.883C757.514 395.981 757.93 411.391 758.165 426.494C758.237 430.258 759.704 442.383 762.076 445.782C762.431 446.292 764.135 447.29 764.783 447.663C768.806 448.706 777.374 447.32 779.295 449.017C780.951 454.107 781.164 479.317 779.693 484.598C778.208 489.932 741.814 488.035 736.278 487.014C718.277 483.694 709.013 470.239 706.876 452.862C706.43 446.355 706.551 439.719 706.278 433.172C704.952 405.389 704.669 377.566 705.429 349.761C705.374 345.636 705.41 341.511 705.538 337.387C700.241 336.977 692.809 337.321 686.857 337.03C686.426 332.891 685.918 301.015 687.241 298.984C693.303 299.222 699.371 299.238 705.434 299.03C705.675 289.012 705.782 278.991 705.755 268.97C705.706 263.068 705.196 253.236 705.807 247.824Z"/><path fill="#DE0002" transform="translate(-15 -198)" d="M707.735 337.25C708.167 340.791 708.1 346.436 707.979 350.158C707.144 375.994 707.881 401.717 707.768 427.541C707.745 432.851 708.179 448.369 706.876 452.862C706.43 446.355 706.551 439.719 706.278 433.172C704.952 405.389 704.669 377.566 705.429 349.761L706.34 349.185L706.904 350.501L707.432 350.094C707.845 347.351 707.573 340.626 707.735 337.25Z"/><path fill="#C70202" transform="translate(-15 -198)" d="M686.857 337.03C686.426 332.891 685.918 301.015 687.241 298.984C688.998 304.89 685.808 332.721 688.983 334.775C694.339 335.237 704.912 332.682 707.735 337.25C707.573 340.626 707.845 347.351 707.432 350.094L706.904 350.501L706.34 349.185L705.429 349.761C705.374 345.636 705.41 341.511 705.538 337.387C700.241 336.977 692.809 337.321 686.857 337.03Z"/><path fill="#310507" transform="translate(-15 -198)" d="M764.783 447.663C768.806 448.706 777.374 447.32 779.295 449.017C776.414 449.376 767.104 449.726 764.53 448.469L764.783 447.663Z"/><path fill="#190E0C" transform="translate(-15 -198)" d="M30.3644 237.191C35.9377 236.878 81.8515 236.766 84.3133 238.056C85.4305 244.528 84.9142 258.759 84.8833 266.012L84.8835 310.745L84.8317 433.34C84.8102 448.401 84.8853 463.452 84.9347 478.511C84.9419 480.714 85.4328 485.144 83.2206 485.845C64.4277 486.192 45.8559 485.654 27.1092 485.554C28.1082 472.471 27.023 455.597 27.3072 442.287C28.4337 398.867 28.6876 355.429 28.069 311.998C28.0326 310.147 27.9318 308.321 27.8156 306.472C26.64 287.774 27.7174 268.932 27.2066 250.2C27.0978 246.209 26.908 242.138 27.5433 238.184C28.5028 237.173 28.6066 237.474 30.3644 237.191Z"/><path transform="translate(-15 -198)" d="M325.843 523.198C330.065 523.311 332.034 523.276 336.036 524.61C338.809 531.833 338.568 557.105 336.174 564.021C332.454 566.59 331.553 566.967 327.192 567.897L326.437 567.938C324.224 568.054 322.841 568.446 321.219 566.981C319.947 564.563 321.488 559.636 321.81 556.053C320.961 555.226 319.833 554.274 318.93 553.465C317.551 547.491 317.172 542.106 317.268 536.005C317.37 529.518 318.366 523.862 325.843 523.198ZM321.668 528.208C321.065 532.243 320.39 548.046 322 551.433C324.358 553.008 331.058 552.108 332.409 554.077C331.004 555.221 326.141 554.377 323.965 554.357C323.749 557.101 323.574 559.848 323.44 562.598C323.505 564.367 323.2 564.453 324.068 565.564C328.034 566.293 333.245 562.404 333.588 558.179C334.188 550.798 335.407 543.248 334.691 535.825C333.949 528.126 335.569 525.63 326.944 525.887C325.179 526.646 323.42 527.42 321.668 528.208Z"/><path transform="translate(-15 -198)" d="M529.019 509.454C532.373 510.91 531.373 521.651 531.607 525.088C532.048 531.574 533.554 549.952 530.29 554.998C528.541 556.085 522.206 557.006 520.027 557.319C517.581 557.671 515.78 556.665 513.991 555.111C513.275 553.95 512.713 552.7 512.318 551.395C510.65 545.898 508.66 524.462 516.967 523.474C520.67 523.034 524.598 522.589 527.845 524.727C529.668 523.872 526.384 514.587 529.019 509.454ZM524.591 553.489C525.558 553.292 526.426 553.247 527.024 552.207C530.162 546.755 528.745 532.02 528.061 526.417C524.3 525.918 522.341 525.798 518.531 525.888C517.027 526.493 516.004 527.132 515.531 528.79C513.155 537.125 510.712 555.856 524.591 553.489Z"/><path transform="translate(-15 -198)" d="M624.406 521.569C638.536 521.667 638.195 546.77 631.668 555.112C629.56 555.839 627.412 556.694 625.322 557.489C622.439 558.309 621.613 557.711 618.828 556.699C613.183 548.886 609.599 535.188 615.77 526.834C617.864 524.034 620.957 522.148 624.406 521.569ZM626.352 554.39C632.484 550.562 632.401 543.665 632.218 537.103C632.055 531.223 630.226 524.392 623.067 524.625C617.294 527.685 616.46 533.434 616.432 539.38C616.399 546.48 617.512 554.656 626.352 554.39Z"/><path transform="translate(-15 -198)" d="M418.704 523.531C433.19 521.993 430.403 527.947 432.063 539.826C432.794 545.059 432.122 549.927 429.768 554.668C428.478 555.564 427.379 556.129 425.994 556.877C421.989 558.12 419.545 557.331 416.177 555.114C412.593 546.195 411.273 534.259 413.653 525.016L418.704 523.531ZM417.029 526.353C416.718 531.613 413.746 554.077 422.338 553.99C425.9 553.954 427.849 550.116 429.071 547.168C431.129 543.052 432.087 542.016 429.784 537.801C426.182 538.681 423.866 539.809 420.364 538.464L419.859 537.851C421.258 535.173 425.879 535.511 428.465 535.463C428.598 529.34 429.6 525.941 422.248 525.969C420.662 526.066 418.561 526.133 417.029 526.353Z"/><path transform="translate(-15 -198)" d="M348.864 523.147C353.547 522.906 356.566 523.459 361.188 524.396C364.933 533.831 362.465 533.697 361.915 542.631C361.633 547.227 366.745 549.872 361.45 556.376C359.628 557.351 356.934 557.939 354.872 557.854C352.817 557.778 350.885 556.855 349.533 555.305C345.272 550.476 345.304 526.306 348.864 523.147ZM351.474 552.597C353.736 554.034 357.707 556.147 359.616 553.183C360.978 546.801 361.801 542.11 355.941 538.078C358.061 536.264 359.993 534.619 360.204 531.674C360.581 526.405 355.965 525.806 352.316 525.336C348.948 528.147 349.83 548.09 351.474 552.597Z"/><path transform="translate(-15 -198)" d="M472.121 523.184C477.801 522.188 486.935 519.973 487.097 528.58C487.256 536.986 487.352 545.374 487.717 553.792C487.767 554.91 487.738 555.46 487.152 556.304C485.178 556.781 483.969 556.141 482.444 556.272C474.893 556.923 470.177 560.03 468.493 549.962C467.432 543.62 469.019 541.734 474.753 539.067C477.727 537.684 480.766 536.334 483.91 535.172C484.079 529.862 485.195 522.621 477.427 525.258C474.995 526.083 474.62 526.197 473.145 528.342C472.515 526.886 472.345 524.806 472.121 523.184ZM473.126 553.222C475.262 553.861 482.909 555.517 483.633 552.201C484.175 549.724 485.57 540.888 483.945 539.093C476.012 542.059 466.414 542.773 473.126 553.222Z"/><path transform="translate(-15 -198)" d="M729.005 522.867L729.589 522.771C733.291 525.072 734.245 552.417 732.733 555.169C730.514 556.351 721.904 557.345 719.479 556.715C714.238 555.354 714.104 547.465 715.151 543.052C715.431 542.529 716.177 541.177 716.618 541.01C721.342 539.22 724.417 538.29 728.86 535.918C729.432 531.632 730.955 524.644 724.384 524.899C719.684 525.082 721.836 531.953 717.959 532.009C717.241 531.3 716.808 529.818 716.73 528.823C716.177 521.733 723.805 523.285 729.005 522.867ZM717.038 543.019C717.613 546.861 717.757 549.59 719.523 553.045C722.602 553.973 724.465 554.885 727.545 554.048C729.924 551.902 731.117 541.86 729.764 538.991L729.305 538.7C723.218 541.086 724.397 544.371 717.038 543.019Z"/><path transform="translate(-15 -198)" d="M548.916 523.196C553.153 523.276 557.987 522.636 558.775 527.948C560.978 542.798 553.722 539.651 543.577 537.903C542.987 543.747 542.272 556.025 552.079 552.849C555.006 551.901 555.703 550.556 556.991 547.852C557.397 546.828 557.322 546.691 558.171 546.052L559.014 546.342C562.966 551.115 556.302 555.722 552.002 556.435C547.301 557.215 547.409 557.629 543.216 555.212C539.674 549.338 540.055 540.441 540.199 533.817C540.371 525.855 541.149 524.191 548.916 523.196ZM543.837 529.115C543.382 535.654 542.133 538.908 549.695 536.508C552.162 535.899 554.648 535.582 555.802 533.158C558.924 526.598 553.838 525.878 549.173 526.187C546.44 527.06 545.883 527.206 543.837 529.115Z"/><path transform="translate(-15 -198)" d="M588.512 511.873C595.094 511.481 604.586 512.075 604.611 521.928C604.614 522.87 604.399 522.94 603.727 523.432C601.616 522.897 600.643 520.099 599.581 518.304C596.446 513.008 585.688 513.634 585.212 520.816C585.111 522.331 584.133 524.923 584.693 526.532C588.788 533.511 602.192 531.057 604.774 540.511C605.743 544.059 604.959 549.282 603.064 552.47C601.023 555.904 596.316 556.403 592.728 557.178C583.669 556.155 582.389 552.712 580.454 544.757C580.955 542.915 581.063 541.89 582.304 540.427L582.804 540.427C583.616 542.253 583.6 545.257 583.781 547.419C585.873 549.932 587.264 551.801 590.617 552.736C599.002 555.118 604.41 546.045 600.072 539.113C596.962 534.143 590.298 533.412 585.06 532.117C583.462 530.467 583.009 529.849 581.7 527.974C581.038 521.451 580.954 514.042 588.512 511.873Z"/><path transform="translate(-15 -198)" d="M291.659 523.218C293.641 523.272 305.979 523.072 306.419 523.927C309.678 530.258 308.282 539.722 308.788 546.712C308.981 549.378 310.178 556.428 305.833 555.694C304.691 553.96 305.301 547.017 305.36 544.714C305.522 538.455 305.458 532.616 304.28 526.421C302.663 525.423 296.279 524.284 294.984 525.647C289.698 531.214 294.254 549.666 291.756 555.576C290.708 556.471 291.283 556.293 290.026 556.275C288.612 553.93 288.628 528.163 289.081 523.874C289.97 523.19 290.348 523.374 291.659 523.218Z"/><path transform="translate(-15 -198)" d="M382.071 523.191C383.58 522.989 390.077 522.792 390.812 524.001C393.35 528.179 393.735 554.234 390.796 556.394C387.817 554.151 389.383 545.648 389.522 542.182C389.704 536.596 389.451 531.005 388.765 525.458C387.415 525.421 386.026 525.449 384.673 525.456C381.708 525.775 379.58 526.618 376.763 527.569C376.034 535.576 376.747 545.425 375.958 553.522C375.883 554.29 375.027 555.614 374.1 556.171C371.573 554.645 372.414 528.569 373.488 525.122C375.484 523.964 379.718 523.456 382.071 523.191Z"/><path transform="translate(-15 -198)" d="M767.785 523.576C769.18 523.443 771.993 523.153 773.238 523.641C778.287 525.621 779.346 535.293 777.517 539.577L776.805 539.778C772.617 537.984 772.368 538.533 767.688 539.512L764.591 538.252C761.241 538.888 763.716 550.593 764.25 553.102C778.086 554.903 773.259 547.303 777.198 545.672C778.724 547.582 779.012 553.43 776.515 554.785C775.269 555.461 772.875 555.986 771.442 556.336C767.722 557.726 766.512 557.063 763.07 555.535C762.659 554.837 761.825 553.081 761.489 552.571C759.482 549.522 759.979 528.514 760.896 526.409L761.479 526.585C763.064 532.093 763.725 530.983 763.623 537.287C766.911 537.144 773.544 538.054 775.048 534.991C774.997 532.407 774.661 529.22 773.618 526.839C770.116 524.605 766.605 529.061 761.833 525.414L761.884 524.859C763.533 524.018 765.886 523.851 767.785 523.576Z"/><path transform="translate(-15 -198)" d="M707.708 522.41C708.43 522.734 708.166 522.572 708.705 523.214C709.431 527.962 706.19 538.373 705.518 543.26C703.769 555.674 696.724 560.861 693.731 545.007C692.773 539.933 691.18 533.728 689.601 528.758C689.318 526.901 688.626 524.417 690.211 523.142C691.565 523.183 692.646 523.884 692.977 525.229C695.241 534.421 695.125 542.868 698.91 551.757C703.496 544.753 703.768 531.39 706.302 523.442C706.854 523.037 707.323 522.693 707.708 522.41Z"/><path transform="translate(-15 -198)" d="M662.283 514.614C663.398 514.835 663.364 514.878 664.355 515.473C666.136 518.312 664.672 543.727 665.505 548.42C666.143 552.013 668.316 554.448 668.761 556.988C667.452 558.045 664.319 557.598 663.024 556.529C662.061 554.911 662.264 552.087 662.181 550.013C661.953 543.028 661.931 532.82 661.435 526.471C656.573 526.872 652.93 527.051 648.061 526.841C651.946 526.095 655.712 525.132 659.679 524.379C660.151 524.734 660.63 525.079 661.117 525.413C662.499 522.4 660.807 517.273 662.283 514.614Z"/><path transform="translate(-15 -198)" d="M649.731 510.94C650.71 511.183 650.661 511.19 651.51 511.753C651.762 513.39 649.548 515.52 649.342 517.015C648.241 525.004 647.529 533.415 647.705 541.457C647.805 546.051 648.359 550.26 648.38 554.645C647.587 555.933 647.658 555.591 646.049 556.384C643.525 553.074 645.112 533.885 642.852 526.483C644.115 523.195 644.545 519.431 645.707 516.177C646.866 512.929 646.982 512.289 649.731 510.94Z"/><path transform="translate(-15 -198)" d="M277.373 511.992C278.649 512.064 278.782 512.023 280.035 512.427C281.401 514.659 281.009 550.738 280.123 555.595C279.254 555.705 278.799 555.719 277.926 555.752C277.75 555.576 277.573 555.401 277.396 555.225C277.11 544.638 277.467 521.372 277.373 511.992Z"/><path transform="translate(-15 -198)" d="M461.194 509.097C462.063 509.37 462.015 509.331 462.692 509.934C460.042 524.623 462.392 541.211 460.902 556.059C460.789 557.187 459.876 557.437 459.011 557.86C456.036 554.623 458.533 512.503 461.194 509.097Z"/><path transform="translate(-15 -198)" d="M403.829 510.594C404.503 512.891 404.449 527.627 404.668 531.178C404.976 536.193 404.476 542.711 404.719 547.918C404.918 552.208 405.9 554.986 401.748 556.506C401.157 555.738 401.021 555.463 401.04 554.31C401.203 544.05 401.412 533.763 401.671 523.509C401.771 519.546 401.346 515.592 401.331 511.586C402.081 510.567 402.097 510.886 403.829 510.594Z"/><path transform="translate(-15 -198)" d="M753.461 522.259C753.87 522.528 754.295 523.093 754.649 523.492C754.158 527.885 747.245 525.274 746.838 526.638C745.03 532.693 748.431 551.275 744.674 555.955C743.747 555.697 743.416 555.555 742.529 555.166C742.439 554.964 742.617 528.217 742.781 526.291C744.359 524.605 750.639 523.231 753.461 522.259Z"/><path transform="translate(-15 -198)" d="M686.863 546.255C684.928 549.626 687.343 551.542 685.035 554.96C684.333 555.394 683.712 555.398 682.911 555.332C682.525 555.301 681.855 555.147 681.601 554.824C679.626 552.31 677.111 530.24 673.024 525.351C672.419 524.627 672.2 524.469 671.958 523.537C672.842 523.154 674.047 523.13 674.989 523.35C678.129 524.081 682.247 544.631 684.555 548.729L686.279 545.622L686.863 546.255Z"/><path transform="translate(-15 -198)" d="M442.692 523.438C445.146 523.263 447.485 523.412 449.94 523.514C450.97 524.452 452.759 525.758 452.994 527.004C451.441 527.385 446.678 525.617 444.379 526.202C443.27 528.98 443.732 543.86 443.756 547.81C443.786 550.225 444.068 553.069 443.462 555.322C442.759 556.181 442.784 556.103 441.717 556.463C440.29 554.571 441.346 532.486 440.994 528.41C440.833 526.547 441.21 524.737 442.692 523.438Z"/><path fill="#190E0C" transform="translate(-15 -198)" d="M473.145 528.342C472.299 529.585 472.099 530.095 470.762 530.808C469.365 530.853 469.945 531.075 468.938 530.189C467.888 527.143 469.038 524.311 472.121 523.184C472.345 524.806 472.515 526.886 473.145 528.342Z"/><path transform="translate(-15 -198)" d="M686.279 545.622C687.53 542.005 687.791 540.619 689.676 537.249C690.171 539.119 688.25 544.578 686.863 546.255L686.279 545.622Z"/></g></svg>