<?xml version="1.0" encoding="utf-8" ?><svg xmlns="http://www.w3.org/2000/svg" xmlns:xlink="http://www.w3.org/1999/xlink" width="2048" height="2048" viewBox="0 0 2048 2048"><defs><linearGradient id="gradient_0" gradientUnits="userSpaceOnUse" x1="61.188511" y1="1095.9398" x2="1991.7175" y2="917.88434"><stop offset="0" stop-color="#4AB4DF"/><stop offset="1" stop-color="#8AD0E8"/></linearGradient></defs><path fill="url(#gradient_0)" d="M713.521 641.075C717.464 633.544 727.568 621.068 732.834 613.623C815.544 496.688 907.636 386.91 1001.71 279.053C1007.56 272.349 1019.83 255.547 1027.67 252.928C1035.08 257.394 1054.46 281.412 1061.69 289.582C1123.37 358.341 1182.61 429.257 1239.29 502.195C1247.42 512.166 1277.21 555.375 1283.58 560.306C1289.49 555.386 1305.38 536.112 1311.8 529.306C1337.21 502.366 1361.36 471.765 1387.56 445.635C1400.17 432.365 1420.99 416.455 1435.89 406.31C1567.6 306.161 1764.19 355.679 1824.88 512.711C1831.71 530.844 1837.09 548.105 1839.38 567.482C1848.32 643.189 1838.54 719.541 1845.21 795.386C1847.24 801.042 1848.06 808.071 1849.51 813.669C1862.47 863.938 1893.5 904.767 1940.24 927.892C1959.22 937.281 1990.44 937.544 1997.48 958.927C2006.18 988.378 2009.84 1025.5 1998.37 1054.54C1991.52 1071.88 1971.32 1071.66 1955.77 1077.67C1915.14 1093.37 1882.99 1127.36 1862.16 1164.86C1858.61 1171.33 1853.65 1186.21 1851.31 1193.64C1843.02 1230.99 1843.14 1249.65 1843.09 1288.04L1843.35 1369.5C1843.65 1442.08 1839.63 1490.6 1798.69 1554.01C1794.54 1561.02 1783.8 1573.06 1777.97 1579.46C1736.23 1625.37 1669.08 1655.84 1607.07 1658.5C1583.81 1659.59 1567.22 1657.2 1549.65 1640.68C1531.41 1623.53 1527.18 1599.92 1534.1 1576.42C1539.62 1557.65 1558.46 1537.99 1577.92 1534.34C1595.21 1531.1 1614.09 1532.88 1630.95 1526.33C1654.64 1517.66 1669.32 1504.82 1686.36 1486.98C1713.8 1451.35 1709.92 1416.4 1709.9 1373.86L1709.72 1288.56C1709.67 1223.24 1710.36 1171.84 1744.34 1112.86C1769.06 1066.42 1802.25 1033.87 1848.59 1010.87C1850.86 1009.74 1852.8 1008.3 1853.36 1005.87C1846.53 999.626 1834.4 993.982 1826.47 988.551C1815.96 981.349 1803.71 972.183 1794.24 963.793C1771.92 943.958 1753.6 920.031 1740.29 893.304C1709.52 833.07 1709.67 790.233 1709.66 725.569L1709.81 639.857C1709.95 613.277 1711.24 587.091 1704.46 561.132C1690.72 508.558 1634.26 477.076 1582.08 482.218C1494.36 490.864 1444.43 576.066 1389.58 634.32C1380.09 644.414 1371.01 656.036 1362.05 666.605C1364.81 678.298 1397.3 720.476 1404.56 735.165C1436.55 780.424 1467.17 840.671 1492.97 889.805C1496.48 896.491 1513.3 929.684 1514.8 935.762C1527.71 964.271 1536.41 985.942 1547.32 1015.03C1553.93 1030.66 1558.59 1047.96 1563.51 1063.94C1581.5 1122.44 1589.26 1182.11 1584.1 1243.2C1582.7 1259.68 1581.47 1277.89 1577.99 1294.31C1575.4 1312.87 1569.05 1334.05 1563.95 1352.26C1509.09 1559.36 1315.24 1721.84 1104.8 1752.26C1094.89 1753.7 1074.67 1756.94 1065.53 1756.1C1053.05 1758.38 1016.62 1758.1 1003.69 1757.45C900.814 1751.9 801.468 1718.06 716.59 1659.68C694.679 1644.5 673.501 1628.09 654.484 1609.47C649.538 1604.62 644.038 1598.63 637.787 1595.75C535.64 1673.14 401.93 1684.7 299.89 1600.71C272.969 1578.55 253.904 1554.85 238.493 1523.49C215.123 1475.94 212.155 1435.92 211.701 1384.16C211.532 1351.39 211.623 1318.62 211.975 1285.86C212.117 1242.33 211.026 1203.82 192.043 1163.02C175.158 1126.73 140.312 1094.59 103.234 1079.8C91.1412 1074.98 67.9414 1072.84 61.1355 1062.33C47.3862 1039.67 47.2771 1006.2 50.8447 981.641C56.5209 942.568 69.5464 942.961 102.185 933.192C110.734 930.633 128.714 920.738 136.463 915.033C179.686 883.213 206.122 834.598 210.507 781.182C212.584 757.318 210.642 730.751 211.061 706.695C211.868 660.355 208.949 602.455 216.931 556.848C228.853 497.378 261.662 442.157 310.648 405.904C356.775 371.766 418.052 348.391 475.936 355.146C512.316 359.392 525.94 400.162 519.697 432.475C510.781 478.624 471.763 479.912 433.994 485.555C418.95 488.836 402.563 494.763 390.174 503.925C341.302 540.068 343.811 592.406 344.107 645.677L344.335 731.123C344.318 739.339 344.034 747.979 344.211 756.101C346.215 848.307 305.993 942.217 224.844 990.647C216.315 995.737 207.277 1000.45 199.038 1006.26C208.68 1013.69 218.314 1016.95 228.02 1023.2C286.353 1060.75 323.991 1119.26 337.499 1186.89C344.421 1221.54 344.116 1253.21 344.086 1288.45L344.053 1370.05C344.057 1392.03 342.102 1426.2 347.852 1445.82C370.535 1523.23 453.818 1552.78 523.64 1516.26C534.068 1510.8 545.381 1506.41 553.998 1498.47C552.946 1493.21 541.175 1476.09 537.408 1468.65C528.133 1454.61 507.959 1410.45 503.25 1394.41C500.808 1389.23 498.136 1379.87 496.31 1374.09C490.52 1356.54 482.908 1330.56 480.035 1312.48C464.748 1252.59 464.461 1166.63 480.123 1106.92C483.259 1089.07 487.774 1071.5 493.63 1054.35C496.003 1042.72 503.358 1021.07 508.429 1010.82C511.334 996.696 535.331 944.306 542.437 929.351C545.43 920.947 549.572 912.86 553.463 904.815C560.811 889.425 568.723 872.85 577.291 858.152C589.401 832.718 608.167 802.325 622.869 778.27C637.163 755.513 652.401 730.199 667.383 708.132L713.521 641.075ZM846.755 1330.92C828.883 1380.06 825.01 1411.45 836.582 1463.27C839.053 1470.27 840.696 1477.93 843.284 1484.51C854.618 1513.3 869.466 1536.25 891.177 1558.21C895.183 1562.27 918.938 1580.99 919.165 1581.27C935.83 1590.96 944.78 1594.97 962.689 1601.39C965.347 1602.18 968.025 1602.9 970.721 1603.55C1049.63 1623.27 1136.61 1607.53 1208.94 1572.26C1223.27 1565.27 1236.63 1557.52 1250.3 1549.34C1273.95 1533.54 1286.47 1523.41 1308.23 1504.85C1314.64 1497.91 1322.87 1490.27 1329.81 1483.93C1332.85 1479.13 1341.61 1470.64 1345.68 1465.92C1387.94 1416.83 1415.36 1359.5 1432.1 1297.03C1442.65 1257.2 1446.39 1215.88 1443.16 1174.81C1433.33 1063.38 1362.91 934.847 1307.64 838.986C1301.63 830.697 1292.8 815.128 1287.32 806.034C1281.53 797.812 1273.68 779.574 1265.91 776.079C1147.02 927.938 1017.46 1073 909.569 1233.69C889.121 1264.14 864.355 1299.25 846.755 1330.92ZM1145.31 609.931C1116.14 572.465 1086.32 535.509 1055.86 499.079C1050.25 492.479 1033.64 472.236 1028.09 467.941C1022.35 467.199 1014.27 480.137 1010.17 484.809C994.736 502.407 979.623 520.289 964.846 538.446C876.198 645.755 799.794 747.378 728.641 867.642C725.219 874.635 722.585 879.342 718.529 886.007C705.961 907.369 694.961 930.83 683.175 952.717C678.088 962.163 672.51 977.137 667.463 985.701C660.559 1001.5 648.944 1032.61 641.672 1046.27L641.212 1048.07C635.617 1069.43 626.594 1088.64 621.052 1111.84C598.794 1205.04 610.942 1299.6 651.96 1385.88C652.783 1387.62 653.998 1388.69 655.754 1389.35C674.994 1360.86 695.452 1326.37 713.76 1296.98C732.368 1267.34 751.404 1237.96 770.863 1208.87C781.628 1192.62 796.607 1168.46 808.146 1153.73C820.849 1135.77 842.992 1102.56 856.526 1086.97C858.917 1082.44 872.707 1065.11 876.479 1060.26C888.019 1045.43 899.419 1030.48 910.676 1015.43C963.06 946.014 1017.1 877.864 1072.76 811.041C1100.05 778.945 1126.99 746.56 1153.59 713.89C1162.98 702.345 1181.21 681.591 1188.67 669.204C1182.04 657.662 1154.27 621.715 1145.31 609.931Z"/><defs><linearGradient id="gradient_1" gradientUnits="userSpaceOnUse" x1="1195.4495" y1="1689.1178" x2="1494.9373" y2="765.68182"><stop offset="0" stop-color="#1364AC"/><stop offset="1" stop-color="#26B3DB"/></linearGradient></defs><path fill="url(#gradient_1)" d="M1281.64 760.787C1283.89 756.488 1311.1 725.096 1316.31 719.27C1330.76 703.081 1347.2 681.662 1362.05 666.605C1364.81 678.298 1397.3 720.476 1404.56 735.165C1436.55 780.424 1467.17 840.671 1492.97 889.805C1496.48 896.491 1513.3 929.684 1514.8 935.762C1527.71 964.271 1536.41 985.942 1547.32 1015.03C1553.93 1030.66 1558.59 1047.96 1563.51 1063.94C1581.5 1122.44 1589.26 1182.11 1584.1 1243.2C1582.7 1259.68 1581.47 1277.89 1577.99 1294.31C1575.4 1312.87 1569.05 1334.05 1563.95 1352.26C1509.09 1559.36 1315.24 1721.84 1104.8 1752.26C1094.89 1753.7 1074.67 1756.94 1065.53 1756.1C1053.05 1758.38 1016.62 1758.1 1003.69 1757.45C900.814 1751.9 801.468 1718.06 716.59 1659.68C694.679 1644.5 673.501 1628.09 654.484 1609.47C649.538 1604.62 644.038 1598.63 637.787 1595.75C640.306 1592.71 648.763 1587.02 652.432 1584.32C693.143 1554.33 721.96 1518.71 751.746 1478.03C754.841 1471.96 761.556 1462.56 765.468 1456.95C766.463 1453.93 800.769 1399.28 803.234 1395.91C811.23 1383.79 839.2 1338.89 846.755 1330.92C828.883 1380.06 825.01 1411.45 836.582 1463.27C839.053 1470.27 840.696 1477.93 843.284 1484.51C854.618 1513.3 869.466 1536.25 891.177 1558.21C895.183 1562.27 918.938 1580.99 919.165 1581.27C935.83 1590.96 944.78 1594.97 962.689 1601.39C965.347 1602.18 968.025 1602.9 970.721 1603.55C1049.63 1623.27 1136.61 1607.53 1208.94 1572.26C1223.27 1565.27 1236.63 1557.52 1250.3 1549.34C1273.95 1533.54 1286.47 1523.41 1308.23 1504.85C1314.64 1497.91 1322.87 1490.27 1329.81 1483.93C1332.85 1479.13 1341.61 1470.64 1345.68 1465.92C1387.94 1416.83 1415.36 1359.5 1432.1 1297.03C1442.65 1257.2 1446.39 1215.88 1443.16 1174.81C1433.33 1063.38 1362.91 934.847 1307.64 838.986C1301.63 830.697 1292.8 815.128 1287.32 806.034C1281.53 797.812 1273.68 779.574 1265.91 776.079C1269.44 775.29 1278.22 764.393 1281.64 760.787Z"/><path fill="#2196C9" d="M1561.7 1313.3L1562.39 1315.57L1563.19 1314.75C1566.75 1329.67 1557.35 1347.95 1560.4 1353.87L1563.95 1352.26C1509.09 1559.36 1315.24 1721.84 1104.8 1752.26C1094.89 1753.7 1074.67 1756.94 1065.53 1756.1C1053.05 1758.38 1016.62 1758.1 1003.69 1757.45C900.814 1751.9 801.468 1718.06 716.59 1659.68C694.679 1644.5 673.501 1628.09 654.484 1609.47C649.538 1604.62 644.038 1598.63 637.787 1595.75C640.306 1592.71 648.763 1587.02 652.432 1584.32C693.143 1554.33 721.96 1518.71 751.746 1478.03C754.841 1471.96 761.556 1462.56 765.468 1456.95C766.463 1453.93 800.769 1399.28 803.234 1395.91C811.23 1383.79 839.2 1338.89 846.755 1330.92C828.883 1380.06 825.01 1411.45 836.582 1463.27C839.053 1470.27 840.696 1477.93 843.284 1484.51C854.618 1513.3 869.466 1536.25 891.177 1558.21C895.183 1562.27 918.938 1580.99 919.165 1581.27C924.598 1593.17 960.201 1611.58 972.713 1617.28C1061.73 1657.9 1183.52 1646.87 1273.48 1611.29C1388.99 1566.4 1483.63 1480.09 1538.94 1369.2C1548.02 1351.36 1554.3 1332.75 1561.31 1314.1C1561.44 1313.83 1561.57 1313.57 1561.7 1313.3Z"/><path fill="#196CAC" d="M751.746 1478.03L753.854 1481.82L755.949 1481.99L755.364 1481.52C757.149 1480.92 757.294 1480.63 759.055 1480.65C759.152 1486.81 757.863 1488.1 759.568 1494.53C759.51 1549.31 770.041 1586.92 800.322 1633.56C831.47 1681.54 878.945 1718.45 933.602 1736.19C939.803 1738.2 965.145 1743.58 968.64 1745.92L968.405 1747.14L965.92 1748.41C986.305 1753.1 1011.41 1754.69 1032.34 1755.49C1041.32 1755.83 1057.26 1754.95 1065.53 1756.1C1053.05 1758.38 1016.62 1758.1 1003.69 1757.45C900.814 1751.9 801.468 1718.06 716.59 1659.68C694.679 1644.5 673.501 1628.09 654.484 1609.47C649.538 1604.62 644.038 1598.63 637.787 1595.75C640.306 1592.71 648.763 1587.02 652.432 1584.32C693.143 1554.33 721.96 1518.71 751.746 1478.03Z"/><path fill="#0E5C9E" d="M689.005 1619.57C691.557 1620.82 691.826 1620.99 694.079 1622.73L694.11 1624.62C692.11 1626.31 690.751 1627.55 688.887 1629.39L690.175 1630.71L690.458 1632.62L689.067 1633.03C684.93 1629.79 683.837 1628.54 683.256 1623.39C684.666 1620.54 685.145 1621.18 689.005 1619.57Z"/><path fill="#0E5C9E" d="M802.945 1692.18C807.1 1692.65 812.971 1692.53 816.116 1694.42L816.085 1695.94L813.715 1697.48C808.406 1697.81 804.829 1698.55 800.664 1695.72C800.914 1693.08 800.45 1694.34 802.945 1692.18Z"/><path fill="#177CB4" d="M803.234 1395.91C811.23 1383.79 839.2 1338.89 846.755 1330.92C828.883 1380.06 825.01 1411.45 836.582 1463.27C828.259 1455.86 830.125 1445.41 826.568 1440.72L825.298 1443.35L824.576 1442.89C824.353 1441.06 824.736 1441.83 823.484 1440.57C820.351 1444.19 821.196 1459.19 817.045 1462.49L814.706 1462.21C812.7 1455.86 812.629 1421.75 811.859 1412.71C811.425 1407.6 813.127 1395.41 811.027 1389.98L809.736 1389.93C808.039 1392.7 806.878 1394.96 804.56 1397.26L803.234 1395.91Z"/><path fill="#196CAC" d="M765.468 1456.95C765.924 1457.68 766.38 1458.42 766.836 1459.15C764.758 1469.51 762.486 1479.98 760.974 1490.42C760.824 1491.46 759.645 1494.34 759.568 1494.53C757.863 1488.1 759.152 1486.81 759.055 1480.65C757.294 1480.63 757.149 1480.92 755.364 1481.52L755.949 1481.99L753.854 1481.82L751.746 1478.03C754.841 1471.96 761.556 1462.56 765.468 1456.95Z"/><path fill="#196CAC" d="M1281.64 760.787C1283.89 756.488 1311.1 725.096 1316.31 719.27C1330.76 703.081 1347.2 681.662 1362.05 666.605C1364.81 678.298 1397.3 720.476 1404.56 735.165C1399.87 732.811 1396.86 727.675 1393.58 723.276C1377.41 738.732 1363.64 758.902 1347.39 774.675C1346.79 776.58 1317 812.28 1315.59 813.023C1312.16 818.465 1307.8 823.049 1305.09 828.318C1306.81 833.135 1307.3 834.006 1307.64 838.986C1301.63 830.697 1292.8 815.128 1287.32 806.034C1281.53 797.812 1273.68 779.574 1265.91 776.079C1269.44 775.29 1278.22 764.393 1281.64 760.787Z"/><path fill="#177CB4" d="M1315.59 813.023L1315.54 811.343C1321.24 803.475 1324.66 796.663 1328.82 787.946C1328.15 789.351 1347.12 774.83 1347.39 774.675C1346.79 776.58 1317 812.28 1315.59 813.023Z"/><path fill="#0E5C9E" d="M1250.3 1549.34C1248.6 1557.39 1241.47 1559.6 1241.87 1566.24L1246.38 1569.18L1246.38 1571.14C1240.6 1576.81 1224.6 1572.43 1219.83 1575.22C1208.98 1581.8 1205.66 1581.75 1193.79 1582.7C1191.67 1582.87 1174.31 1590.38 1171.44 1591.56C1148.37 1600.97 1125.26 1605.98 1100.95 1610.76C1093.84 1612.15 1094.34 1616.65 1088.04 1617.44C1085.81 1617.78 1079.5 1618.56 1078.27 1619.63C1080.27 1619.72 1092.02 1619.69 1092.67 1620.23C1080.16 1622.79 1040.8 1620.4 1027.6 1617.84L1029.93 1617.71C1010.26 1614.08 986.398 1611.95 967.078 1605.62C965.743 1605.18 963.595 1602.53 962.689 1601.39C965.347 1602.18 968.025 1602.9 970.721 1603.55C1049.63 1623.27 1136.61 1607.53 1208.94 1572.26C1223.27 1565.27 1236.63 1557.52 1250.3 1549.34Z"/><path fill="#29A0D0" d="M1561.7 1313.3C1563.97 1304.15 1572.99 1267.7 1577.24 1261.68C1579.42 1265.49 1577.2 1287.31 1577.99 1294.31C1575.4 1312.87 1569.05 1334.05 1563.95 1352.26L1560.4 1353.87C1557.35 1347.95 1566.75 1329.67 1563.19 1314.75L1562.39 1315.57L1561.7 1313.3Z"/><path fill="#29A0D0" d="M1514.8 935.762C1527.71 964.271 1536.41 985.942 1547.32 1015.03C1544.32 1015.49 1543.71 1015.88 1540.87 1014.83C1539.67 1010.89 1539.59 1007.26 1534.8 1006.73L1532.37 1009.16C1522.28 1000.53 1530.54 982.327 1521.05 970.069C1514.67 961.822 1514.27 946.19 1514.8 935.762Z"/><path fill="#0E5C9E" d="M1308.23 1504.85C1314.64 1497.91 1322.87 1490.27 1329.81 1483.93C1329.4 1485.56 1328.56 1488.93 1328.16 1490.46C1327.94 1491.3 1323.61 1492.5 1323.99 1494.32C1328.09 1494.16 1330.96 1493.35 1334.13 1495.08C1335.69 1498.27 1335.6 1496.71 1334.87 1499.84C1327.71 1505.67 1317.26 1501.25 1308.23 1504.85Z"/><path fill="#2196C9" d="M1448.57 1103.2C1451.03 1104.05 1449.96 1103.39 1451.81 1105.16C1452.19 1115.22 1452.84 1119.62 1451.64 1129.68C1448.83 1129.49 1450.08 1129.84 1447.89 1128.43C1445.32 1120.97 1447.46 1111.2 1448.57 1103.2Z"/><path fill="#196CAC" d="M1300.23 1517.49C1304.35 1518.87 1306.96 1519.32 1309.24 1523.04L1308.69 1524.91C1304.85 1527.12 1306.04 1526.44 1301.02 1526.43L1299.26 1524.41C1296.88 1524.71 1294.78 1525.05 1292.43 1525.45C1295.01 1522.78 1297.61 1520.13 1300.23 1517.49Z"/><path fill="#177CB4" d="M1425.57 1335.5L1426.95 1336.22C1429.26 1342.45 1428.84 1351.94 1428.36 1358.57C1427.29 1358.54 1426.76 1358.26 1425.69 1357.93C1422.83 1352.46 1424.85 1341.84 1425.57 1335.5Z"/><path fill="#196CAC" d="M1124.36 1616.93C1129.36 1618.09 1137.82 1617.07 1144.38 1618.3L1144.39 1619.84L1142.56 1619.92C1136.37 1620.66 1126.01 1622.77 1120.42 1619.85L1120.84 1618.28L1124.36 1616.93Z"/><path fill="#196CAC" d="M1135.52 1607.48C1140.43 1606.94 1143.41 1606.31 1145.68 1611.11L1144.74 1611.56L1145.34 1609.55L1144.46 1611.78L1142.54 1612.46C1138.41 1612.45 1136.81 1612.26 1132.96 1610.93L1132.61 1609.52L1135.52 1607.48Z"/><path fill="#29A0D0" d="M1379.09 937.384L1380.25 938.303C1381.85 942.373 1381.57 952.272 1379.98 956.679C1378.37 955.946 1379.18 956.468 1377.68 954.949C1376.7 949.261 1378.14 943.139 1379.09 937.384Z"/><path fill="#2196C9" d="M1399.45 985.229C1405.86 987.145 1405.23 992.415 1402.19 997.12L1400.09 995.887C1398.42 991.556 1398.98 990.034 1399.45 985.229Z"/><defs><linearGradient id="gradient_2" gradientUnits="userSpaceOnUse" x1="687.15479" y1="1514.5083" x2="993.52771" y2="256.604"><stop offset="0" stop-color="#1A64A7"/><stop offset="1" stop-color="#24B3DE"/></linearGradient></defs><path fill="url(#gradient_2)" d="M713.521 641.075C717.464 633.544 727.568 621.068 732.834 613.623C815.544 496.688 907.636 386.91 1001.71 279.053C1007.56 272.349 1019.83 255.547 1027.67 252.928C1035.08 257.394 1054.46 281.412 1061.69 289.582C1123.37 358.341 1182.61 429.257 1239.29 502.195C1247.42 512.166 1277.21 555.375 1283.58 560.306C1278.76 566.938 1273.07 572.895 1267.73 579.098C1241.7 609.292 1214.27 638.674 1188.67 669.204C1182.04 657.662 1154.27 621.715 1145.31 609.931C1116.14 572.465 1086.32 535.509 1055.86 499.079C1050.25 492.479 1033.64 472.236 1028.09 467.941C1022.35 467.199 1014.27 480.137 1010.17 484.809C994.736 502.407 979.623 520.289 964.846 538.446C876.198 645.755 799.794 747.378 728.641 867.642C725.219 874.635 722.585 879.342 718.529 886.007C705.961 907.369 694.961 930.83 683.175 952.717C678.088 962.163 672.51 977.137 667.463 985.701C660.559 1001.5 648.944 1032.61 641.672 1046.27L641.212 1048.07C635.617 1069.43 626.594 1088.64 621.052 1111.84C598.794 1205.04 610.942 1299.6 651.96 1385.88C652.783 1387.62 653.998 1388.69 655.754 1389.35C642.578 1411.96 628.481 1428.57 611.891 1448.36C604.068 1456.61 596.068 1464.7 587.898 1472.61C581.919 1477.01 575.444 1482.67 569.641 1486.74C567.556 1488.25 554.708 1497.34 553.998 1498.47C552.946 1493.21 541.175 1476.09 537.408 1468.65C528.133 1454.61 507.959 1410.45 503.25 1394.41C500.808 1389.23 498.136 1379.87 496.31 1374.09C490.52 1356.54 482.908 1330.56 480.035 1312.48C464.748 1252.59 464.461 1166.63 480.123 1106.92C483.259 1089.07 487.774 1071.5 493.63 1054.35C496.003 1042.72 503.358 1021.07 508.429 1010.82C511.334 996.696 535.331 944.306 542.437 929.351C545.43 920.947 549.572 912.86 553.463 904.815C560.811 889.425 568.723 872.85 577.291 858.152C589.401 832.718 608.167 802.325 622.869 778.27C637.163 755.513 652.401 730.199 667.383 708.132L713.521 641.075Z"/><path fill="#196CAC" d="M1239.29 502.195C1247.42 512.166 1277.21 555.375 1283.58 560.306C1278.76 566.938 1273.07 572.895 1267.73 579.098C1241.7 609.292 1214.27 638.674 1188.67 669.204C1182.04 657.662 1154.27 621.715 1145.31 609.931C1148.97 610.942 1149.01 611.839 1152.93 613.083C1158.54 609.763 1180.81 583.315 1185.79 577.1C1191.95 570.242 1197.96 563.245 1203.8 556.115C1207.82 551.573 1211.95 547.295 1215.16 542.169C1218.25 539.993 1227.19 528.829 1230.01 525.403C1238.08 515.667 1243.2 515.591 1239.29 502.195Z"/><path fill="#0E5C9E" d="M480.123 1106.92C480.906 1123.96 480.197 1141.58 480.676 1158.61C481.592 1191.12 482.158 1224.3 480.779 1256.8C480.154 1271.52 481.606 1299.34 480.035 1312.48C464.748 1252.59 464.461 1166.63 480.123 1106.92Z"/><path fill="#177CB4" d="M577.291 858.152C589.401 832.718 608.167 802.325 622.869 778.27C624.217 784.353 625.12 811.312 622.273 815.833C617.943 816.149 605.776 815.68 603.278 818.113C599.137 822.146 599.146 833.796 596.061 838.745C595.845 836.975 595.64 835.203 595.446 833.431C589.104 841.478 586.413 856.192 577.291 858.152Z"/><path fill="#2196C9" d="M713.521 641.075C713.884 654.794 700.131 668.673 695.248 681.09C693.444 685.679 698.398 691.641 692.981 697.015C690.086 696.705 688.598 695.012 686.263 693.136C684.516 698.684 672.83 707.533 667.383 708.132L713.521 641.075Z"/><path fill="#0E5C9E" d="M537.408 1468.65C540.32 1470.29 540.324 1470.93 543.187 1470.86C542.99 1465.69 539.777 1465.03 540.365 1459.66C544.731 1457.25 543.557 1461.66 546.893 1458.24C548 1457.11 549.02 1456.66 550.446 1456.14C555.935 1460.55 553.871 1465.94 551.746 1471.44C553.791 1476.58 552.973 1478.8 558.565 1479.04C556.655 1480.48 556.699 1479.93 553.651 1480.34C554.242 1480.51 559.836 1482.17 559.791 1482.2C563.951 1479.93 562.48 1479.57 566.645 1485.09C567.93 1483.25 567.797 1483.32 569.751 1482.06L571.586 1482.29L569.641 1486.74C567.556 1488.25 554.708 1497.34 553.998 1498.47C552.946 1493.21 541.175 1476.09 537.408 1468.65Z"/><path fill="#196CAC" d="M641.672 1046.27C640.605 1034.82 645.106 1034.2 646.843 1025.43C648.264 1018.24 648.352 1004.63 648.387 996.965C648.409 992.306 647.412 990.872 649.972 987.047L651.369 986.962C653.73 991.955 649.846 994.592 653.82 1002.35C657.102 1001.05 658.672 993.935 661.526 990.86C663.351 988.892 665.38 987.328 667.463 985.701C660.559 1001.5 648.944 1032.61 641.672 1046.27Z"/><path fill="#196CAC" d="M508.429 1010.82C508.43 1023.95 503.446 1042.86 504.228 1057C504.484 1061.63 506.566 1075.48 504.887 1078.23C501.565 1076.67 503.116 1077.63 500.565 1073.96C500.246 1069.57 501.214 1044.33 500.462 1042.99C497.36 1048.36 497.936 1051.29 493.63 1054.35C496.003 1042.72 503.358 1021.07 508.429 1010.82Z"/><path fill="#196CAC" d="M553.463 904.815C553.336 909.678 552.93 916.86 552.498 921.78C551.828 929.405 554.469 950.463 550.168 955.31L548.763 954.747C548.207 948.657 549.743 929.358 548.209 926.785L546.596 926.31L542.437 929.351C545.43 920.947 549.572 912.86 553.463 904.815Z"/><path fill="#0E5C9E" d="M496.31 1374.09L499.689 1372.32C500.599 1365.82 499.047 1350.38 502.265 1346.23C505.753 1349.12 503.267 1371 503.292 1376.91C503.31 1381.44 503.576 1390.19 503.25 1394.41C500.808 1389.23 498.136 1379.87 496.31 1374.09Z"/><path fill="#177CB4" d="M718.529 886.007C718.665 881.178 719.486 876.1 719.534 871.985C719.647 862.523 719.11 853.826 719.736 844.235L720.942 843.481C727.653 852.777 718.135 862.144 722.629 871.795C725.308 869.065 725.143 869.155 728.641 867.642C725.219 874.635 722.585 879.342 718.529 886.007Z"/><path fill="#29A0D0" d="M1185.79 577.1C1183.97 575.02 1184.46 576.251 1183.94 573.549C1188.04 567.984 1195.34 557.353 1201.47 554.9L1203.8 556.115C1197.96 563.245 1191.95 570.242 1185.79 577.1Z"/><path fill="#29A0D0" d="M1215.16 542.169L1214.76 540.922C1215.51 535.401 1222.77 523.515 1228.55 522.971L1230.01 525.403C1227.19 528.829 1218.25 539.993 1215.16 542.169Z"/><path fill="#196CAC" d="M624.997 1029.39C627.452 1030.08 627.097 1030.04 629.396 1031.25C629.143 1036.1 626.894 1044.48 627.693 1049.06C627.632 1052.81 628.383 1051.97 626.71 1054.04L625.685 1052.78C624.201 1044.41 623.473 1037.88 624.997 1029.39Z"/><path fill="#196CAC" d="M525.734 982.672C526.339 982.487 525.866 982.57 527.568 982.626C528.33 989.443 528.913 1000.68 527.844 1007.38C522.73 1003.64 525.282 988.732 525.734 982.672Z"/><path fill="#177CB4" d="M767.767 771.163L770.354 772.526C772.356 782.041 767.005 783.331 770.106 792.957C767.739 793.349 768.826 793.519 766.822 792.623C765.872 785.47 766.192 778.205 767.767 771.163Z"/><path fill="#2196C9" d="M815.128 700.418L817.118 701.792C817.782 706.013 818.777 715.116 815.54 718.24L815.354 718.165C814.072 713.451 814.353 705.262 815.128 700.418Z"/><path fill="#81C5DC" d="M1744.34 1112.86C1745.22 1124.82 1729.11 1154.32 1725.43 1167.7C1722.96 1176.72 1722.48 1186.43 1720.83 1195.64C1719.31 1204.09 1716.48 1212.53 1715.46 1221.03C1713.94 1233.76 1715.99 1246.78 1716.16 1259.54C1716.44 1281.04 1714.06 1302.53 1713.93 1323.97C1713.89 1329.71 1716.39 1335.15 1716.67 1340.87C1717.28 1353.61 1715.63 1366.73 1715.6 1379.53C1715.52 1414.13 1719.74 1434.4 1703.57 1467.15C1700.98 1472.41 1698.37 1479.34 1694.82 1483.86C1692.95 1486.24 1689.25 1486.64 1686.36 1486.98C1713.8 1451.35 1709.92 1416.4 1709.9 1373.86L1709.72 1288.56C1709.67 1223.24 1710.36 1171.84 1744.34 1112.86Z"/><path fill="#81C5DC" d="M1798.69 1554.01C1797.46 1539.1 1806.58 1539.53 1807.01 1530.24C1813.89 1523.52 1819.93 1504.14 1823.1 1494.57C1829.13 1476.34 1834.27 1456.41 1836.42 1437.29C1838.56 1419.73 1837.17 1403.68 1837.92 1385.99C1840.53 1324.62 1830.7 1258.71 1846.66 1198.99C1847.78 1194.79 1847.75 1195.44 1851.31 1193.64C1843.02 1230.99 1843.14 1249.65 1843.09 1288.04L1843.35 1369.5C1843.65 1442.08 1839.63 1490.6 1798.69 1554.01Z"/><path fill="#81C5DC" d="M1824.88 512.711C1831.71 530.844 1837.09 548.105 1839.38 567.482C1848.32 643.189 1838.54 719.541 1845.21 795.386C1830.41 779.809 1840.73 632.096 1838.94 602.687C1837.3 575.817 1834.99 552.483 1825.72 526.009C1823.61 519.966 1823.97 518.937 1824.88 512.711Z"/><path fill="#81C5DC" d="M808.146 1153.73C820.849 1135.77 842.992 1102.56 856.526 1086.97C857.641 1089.55 858.469 1089.87 857.094 1092.95C852.755 1102.68 858.721 1105 846.94 1111.14C846.336 1111.45 842.782 1119.36 840.709 1121.41L839.655 1121L839.273 1116.96C834.379 1125.23 826.059 1146.39 821.555 1149.92C815.177 1150.64 819.047 1146.9 815.321 1149.84C814.67 1153.91 813.874 1155.5 809.664 1156.88C808.583 1155.16 808.689 1155.62 808.146 1153.73Z"/><path fill="#81C5DC" d="M1435.89 406.31C1435.9 410.943 1432.79 413.781 1429.85 417.354C1426.95 420.878 1419.29 422.097 1417.33 426.867C1416.13 429.776 1413.17 432.592 1410.88 434.682L1409.29 432.093C1401.82 433.05 1400.96 448.542 1387.56 445.635C1400.17 432.365 1420.99 416.455 1435.89 406.31Z"/><path fill="#81C5DC" d="M611.891 1448.36C618.625 1455.04 595.94 1469.81 591.272 1473.28C588.84 1473.39 589.958 1473.65 587.898 1472.61C596.068 1464.7 604.068 1456.61 611.891 1448.36Z"/></svg>